<svg viewBox="0 0 339 339" x="0" y="0" fill="none" xmlns="http://www.w3.org/2000/svg"><path id="Star 1" d="M164.85,11.794c1.66,-4.221 7.64,-4.221 9.3,0l42.5,107.744c0.5,1.289 1.52,2.309 2.81,2.817l107.75,42.494c4.22,1.664 4.22,7.638 0,9.302l-107.75,42.494c-1.29,0.508 -2.31,1.528 -2.81,2.817l-42.5,107.744c-1.66,4.221 -7.64,4.221 -9.3,0l-42.5,-107.744c-0.5,-1.289 -1.52,-2.309 -2.81,-2.817l-107.75,-42.494c-4.22,-1.664 -4.22,-7.638 0,-9.302l107.75,-42.494c1.29,-0.508 2.31,-1.528 2.81,-2.817z" fill="currentColor" xmlns="http://www.w3.org/2000/svg"/></svg>