<svg viewBox="0 0 218 218" x="0" y="0" fill="none" xmlns="http://www.w3.org/2000/svg"><path id="Star 2" d="M104.349,11.794c1.664,-4.221 7.638,-4.221 9.302,0l25.382,64.356c0.508,1.289 1.528,2.309 2.817,2.817l64.356,25.382c4.221,1.664 4.221,7.638 0,9.302l-64.356,25.382c-1.289,0.508 -2.309,1.528 -2.817,2.817l-25.382,64.36c-1.664,4.22 -7.638,4.22 -9.302,0l-25.382,-64.36c-0.508,-1.289 -1.528,-2.309 -2.817,-2.817l-64.356,-25.382c-4.221,-1.664 -4.221,-7.638 0,-9.302l64.356,-25.382c1.289,-0.508 2.309,-1.528 2.817,-2.817z" fill="currentColor" xmlns="http://www.w3.org/2000/svg"/></svg>