<svg width="100" height="150" viewBox="0 0 100 150" fill="none" xmlns="http://www.w3.org/2000/svg">
  <!-- Frog illustration in pixel art style -->
  <rect x="20" y="20" width="10" height="10" fill="#c4d95e"/>
  <rect x="70" y="20" width="10" height="10" fill="#c4d95e"/>
  <rect x="10" y="30" width="10" height="10" fill="#c4d95e"/>
  <rect x="30" y="30" width="10" height="10" fill="#c4d95e"/>
  <rect x="60" y="30" width="10" height="10" fill="#c4d95e"/>
  <rect x="80" y="30" width="10" height="10" fill="#c4d95e"/>
  <rect x="10" y="40" width="10" height="10" fill="#c4d95e"/>
  <rect x="20" y="40" width="10" height="10" fill="#333"/>
  <rect x="30" y="40" width="10" height="10" fill="#c4d95e"/>
  <rect x="60" y="40" width="10" height="10" fill="#c4d95e"/>
  <rect x="70" y="40" width="10" height="10" fill="#333"/>
  <rect x="80" y="40" width="10" height="10" fill="#c4d95e"/>
  <rect x="10" y="50" width="80" height="10" fill="#c4d95e"/>
  <rect x="20" y="60" width="60" height="10" fill="#c4d95e"/>
  <rect x="30" y="70" width="10" height="10" fill="#c4d95e"/>
  <rect x="60" y="70" width="10" height="10" fill="#c4d95e"/>
  <rect x="20" y="80" width="20" height="10" fill="#c4d95e"/>
  <rect x="60" y="80" width="20" height="10" fill="#c4d95e"/>
  <rect x="10" y="90" width="30" height="10" fill="#c4d95e"/>
  <rect x="60" y="90" width="30" height="10" fill="#c4d95e"/>
  <rect x="0" y="100" width="40" height="10" fill="#c4d95e"/>
  <rect x="60" y="100" width="40" height="10" fill="#c4d95e"/>
</svg>