<svg width="100" height="150" viewBox="0 0 100 150" fill="none" xmlns="http://www.w3.org/2000/svg">
  <!-- Second frog illustration -->
  <rect x="25" y="25" width="10" height="10" fill="#c4d95e"/>
  <rect x="65" y="25" width="10" height="10" fill="#c4d95e"/>
  <rect x="15" y="35" width="10" height="10" fill="#c4d95e"/>
  <rect x="35" y="35" width="10" height="10" fill="#c4d95e"/>
  <rect x="55" y="35" width="10" height="10" fill="#c4d95e"/>
  <rect x="75" y="35" width="10" height="10" fill="#c4d95e"/>
  <rect x="15" y="45" width="10" height="10" fill="#c4d95e"/>
  <rect x="25" y="45" width="10" height="10" fill="#333"/>
  <rect x="35" y="45" width="10" height="10" fill="#c4d95e"/>
  <rect x="55" y="45" width="10" height="10" fill="#c4d95e"/>
  <rect x="65" y="45" width="10" height="10" fill="#333"/>
  <rect x="75" y="45" width="10" height="10" fill="#c4d95e"/>
  <rect x="15" y="55" width="70" height="10" fill="#c4d95e"/>
  <rect x="25" y="65" width="50" height="10" fill="#c4d95e"/>
  <rect x="35" y="75" width="10" height="10" fill="#c4d95e"/>
  <rect x="55" y="75" width="10" height="10" fill="#c4d95e"/>
  <rect x="25" y="85" width="20" height="10" fill="#c4d95e"/>
  <rect x="55" y="85" width="20" height="10" fill="#c4d95e"/>
  <rect x="15" y="95" width="25" height="10" fill="#c4d95e"/>
  <rect x="60" y="95" width="25" height="10" fill="#c4d95e"/>
  <rect x="5" y="105" width="35" height="10" fill="#c4d95e"/>
  <rect x="60" y="105" width="35" height="10" fill="#c4d95e"/>
</svg>